<svg xmlns="http://www.w3.org/2000/svg" width="128" height="128" viewBox="0 0 128 128">
  <!-- 背景 -->
  <circle cx="64" cy="64" r="64" fill="#4F46E5"/>
  
  <!-- 头部 -->
  <circle cx="64" cy="52" r="28" fill="#FFD5C2"/>
  
  <!-- 眼睛 -->
  <circle cx="54" cy="46" r="5" fill="#1F2937"/>
  <circle cx="74" cy="46" r="5" fill="#1F2937"/>
  <circle cx="54" cy="45" r="2" fill="white"/>
  <circle cx="74" cy="45" r="2" fill="white"/>
  
  <!-- 微笑嘴巴 -->
  <path d="M 52 60 Q 64 68 76 60" stroke="#1F2937" stroke-width="2" fill="none"/>
  
  <!-- 腮红 -->
  <circle cx="46" cy="54" r="4" fill="#FECACA" opacity="0.6"/>
  <circle cx="82" cy="54" r="4" fill="#FECACA" opacity="0.6"/>
  
  <!-- 发型 -->
  <path d="M 36 40 Q 36 24 64 24 Q 92 24 92 40" fill="#8B5CF6"/>
  <path d="M 36 40 Q 28 52 36 64" fill="#8B5CF6"/>
  <path d="M 92 40 Q 100 52 92 64" fill="#8B5CF6"/>
  
  <!-- 装饰元素 -->
  <circle cx="42" cy="30" r="3" fill="#FFD700"/>
  <circle cx="86" cy="30" r="3" fill="#FFD700"/>
  
  <!-- 文字 -->
  <text x="64" y="105" font-family="Arial, sans-serif" font-size="16" font-weight="bold" fill="white" text-anchor="middle">XCX</text>
</svg>